<svg xmlns="http://www.w3.org/2000/svg" viewBox="0 0 600 560" fill="none">
<defs>
  <linearGradient id="display" x1="0" y1="0" x2="0" y2="1">
    <stop offset="0" stop-color="#17325c"/>
    <stop offset="1" stop-color="#0c1c36"/>
  </linearGradient>
  <linearGradient id="body" x1="0" y1="0" x2="1" y2="0">
    <stop offset="0" stop-color="#1d3d6b"/>
    <stop offset="1" stop-color="#0b1a30"/>
  </linearGradient>
  <radialGradient id="glow" cx="0.5" cy="0.5" r="0.5">
    <stop offset="0" stop-color="#3dd9e6" stop-opacity="0.38"/>
    <stop offset="1" stop-color="#3dd9e6" stop-opacity="0"/>
  </radialGradient>
  <style>
    .float { animation: float 6s ease-in-out infinite; }
    .flow { stroke-dasharray: 3 6; animation: flow 1.6s linear infinite; }
    @keyframes float { 0%,100% { transform: translateY(0); } 50% { transform: translateY(-8px); } }
    @keyframes flow { to { stroke-dashoffset: -9; } }
    @media (prefers-reduced-motion: reduce) { .float, .flow { animation: none; } }
  </style>
</defs>
<polygon points="29.8,371.0 300.0,527.0 300.0,508.8 29.8,352.8" fill="#0c1a32" stroke="#22385c" stroke-width="1" stroke-linejoin="round"/><polygon points="570.2,371.0 300.0,527.0 300.0,508.8 570.2,352.8" fill="#091527" stroke="#22385c" stroke-width="1" stroke-linejoin="round"/><polygon points="300.0,196.8 570.2,352.8 300.0,508.8 29.8,352.8" fill="#112344" stroke="#22385c" stroke-width="1" stroke-linejoin="round"/>
<line x1="345.0" y1="222.8" x2="74.8" y2="378.8" stroke="#1b2b45" stroke-width="1" stroke-linecap="round" opacity="0.7"/>
<line x1="255.0" y1="222.8" x2="525.2" y2="378.8" stroke="#1b2b45" stroke-width="1" stroke-linecap="round" opacity="0.7"/>
<line x1="390.1" y1="248.8" x2="119.9" y2="404.8" stroke="#1b2b45" stroke-width="1" stroke-linecap="round" opacity="0.7"/>
<line x1="209.9" y1="248.8" x2="480.1" y2="404.8" stroke="#1b2b45" stroke-width="1" stroke-linecap="round" opacity="0.7"/>
<line x1="435.1" y1="274.8" x2="164.9" y2="430.8" stroke="#1b2b45" stroke-width="1" stroke-linecap="round" opacity="0.7"/>
<line x1="164.9" y1="274.8" x2="435.1" y2="430.8" stroke="#1b2b45" stroke-width="1" stroke-linecap="round" opacity="0.7"/>
<line x1="480.1" y1="300.8" x2="209.9" y2="456.8" stroke="#1b2b45" stroke-width="1" stroke-linecap="round" opacity="0.7"/>
<line x1="119.9" y1="300.8" x2="390.1" y2="456.8" stroke="#1b2b45" stroke-width="1" stroke-linecap="round" opacity="0.7"/>
<line x1="525.2" y1="326.8" x2="255.0" y2="482.8" stroke="#1b2b45" stroke-width="1" stroke-linecap="round" opacity="0.7"/>
<line x1="74.8" y1="326.8" x2="345.0" y2="482.8" stroke="#1b2b45" stroke-width="1" stroke-linecap="round" opacity="0.7"/>
<polygon points="281.1,259.7 452.2,358.5 452.2,218.1 281.1,119.3" fill="#0d1c35" stroke="#2b4a78" stroke-width="1" stroke-linejoin="round"/><polygon points="462.1,352.8 452.2,358.5 452.2,218.1 462.1,212.4" fill="#0a1628" stroke="#2b4a78" stroke-width="1" stroke-linejoin="round"/><polygon points="291.0,113.6 462.1,212.4 452.2,218.1 281.1,119.3" fill="#1d3760" stroke="#2b4a78" stroke-width="1" stroke-linejoin="round"/>
<polygon points="290.1,254.5 443.2,342.9 443.2,223.3 290.1,134.9" fill="url(#display)" />
<polygon points="348.6,236.3 348.6,199.9 380.2,236.3" fill="#3dd9e6" stroke="#3dd9e6" stroke-width="5" stroke-linejoin="round"/>
<line x1="301.4" y1="240.2" x2="431.9" y2="315.6" stroke="#2a4873" stroke-width="3" stroke-linecap="round" />
<line x1="301.4" y1="240.2" x2="375.7" y2="283.1" stroke="#3dd9e6" stroke-width="3" stroke-linecap="round" />
<circle cx="375.7" cy="283.1" r="5" fill="#f4f6fa"/>
<path d="M188.3,337.2 L188.3,298.2 A21.7,12.5 0 0 1 231.6,298.2 L231.6,337.2 A21.7,12.5 0 0 1 188.3,337.2 Z" fill="url(#body)" stroke="#2b4a78" stroke-width="1"/><ellipse cx="209.9" cy="298.2" rx="21.7" ry="12.5" fill="#244a80" stroke="#2b4a78" stroke-width="1"/><circle cx="209.9" cy="280.5" r="13.5" fill="#3dd9e6"/>
<path d="M210.8,391.8 L210.8,352.8 A21.7,12.5 0 0 1 254.1,352.8 L254.1,391.8 A21.7,12.5 0 0 1 210.8,391.8 Z" fill="url(#body)" stroke="#2b4a78" stroke-width="1"/><ellipse cx="232.5" cy="352.8" rx="21.7" ry="12.5" fill="#244a80" stroke="#2b4a78" stroke-width="1"/><circle cx="232.5" cy="335.1" r="13.5" fill="#7188ab"/>
<path d="M305.4,404.8 L305.4,365.8 A21.7,12.5 0 0 1 348.7,365.8 L348.7,404.8 A21.7,12.5 0 0 1 305.4,404.8 Z" fill="url(#body)" stroke="#2b4a78" stroke-width="1"/><ellipse cx="327.0" cy="365.8" rx="21.7" ry="12.5" fill="#244a80" stroke="#2b4a78" stroke-width="1"/><circle cx="327.0" cy="348.1" r="13.5" fill="#7188ab"/>
<g class="float"><circle cx="466.6" cy="144.8" r="95" fill="url(#glow)"/><polygon points="452.7,152.9 466.6,160.9 466.6,144.8 452.7,136.7" fill="#2bb8c4" /><polygon points="480.6,152.9 466.6,160.9 466.6,144.8 480.6,136.7" fill="#1a8f9c" /><polygon points="466.6,128.7 480.6,136.7 466.6,144.8 452.7,136.7" fill="#8ff3fa" /><polygon points="423.8,169.5 466.6,194.2 466.6,144.8 423.8,120.1" fill="rgba(61,217,230,0.05)" stroke="#3dd9e6" stroke-width="1.2" stroke-linejoin="round"/><polygon points="509.4,169.5 466.6,194.2 466.6,144.8 509.4,120.1" fill="rgba(61,217,230,0.03)" stroke="#3dd9e6" stroke-width="1.2" stroke-linejoin="round"/><polygon points="466.6,95.4 509.4,120.1 466.6,144.8 423.8,120.1" fill="rgba(61,217,230,0.07)" stroke="#3dd9e6" stroke-width="1.2" stroke-linejoin="round"/></g>
</svg>